<svg xmlns="http://www.w3.org/2000/svg" version="1.1" xmlns:xlink="http://www.w3.org/1999/xlink" width="512" height="512" x="0" y="0" viewBox="0 0 512 512" style="enable-background:new 0 0 512 512" xml:space="preserve" class=""><g><path d="M504 403.6h-38.2V339a8 8 0 0 0-8-8H264v-25h13.549a10.919 10.919 0 0 0 10.585-8.225l5.259-20.625a128.893 128.893 0 0 0 23.646-9.767l18.4 10.922a10.919 10.919 0 0 0 13.3-1.668l30.686-30.687a10.917 10.917 0 0 0 1.67-13.3l-10.872-18.313a129.05 129.05 0 0 0 9.828-23.618l20.728-5.286A10.917 10.917 0 0 0 409 174.848v-43.4a10.919 10.919 0 0 0-8.225-10.585l-20.624-5.259a129.012 129.012 0 0 0-9.768-23.646l10.921-18.4a10.918 10.918 0 0 0-1.667-13.3l-30.686-30.681a10.916 10.916 0 0 0-13.3-1.671l-18.316 10.872a129.047 129.047 0 0 0-23.617-9.828l-5.285-20.724A10.915 10.915 0 0 0 277.849 0h-43.4a10.915 10.915 0 0 0-10.584 8.225l-5.26 20.625a128.893 128.893 0 0 0-23.646 9.767L176.563 27.7a10.914 10.914 0 0 0-13.3 1.668l-30.689 30.684a10.919 10.919 0 0 0-1.667 13.3l10.872 18.314a128.981 128.981 0 0 0-9.829 23.617l-20.728 5.285A10.917 10.917 0 0 0 103 131.151v43.4a10.92 10.92 0 0 0 8.225 10.585l20.624 5.259a128.974 128.974 0 0 0 9.768 23.645l-10.922 18.4a10.917 10.917 0 0 0 1.669 13.3l30.685 30.685a10.912 10.912 0 0 0 13.3 1.67l18.315-10.871a129.077 129.077 0 0 0 23.618 9.829l5.284 20.723A10.916 10.916 0 0 0 234.152 306H248v25H54.2a8 8 0 0 0-8 8v64.6H8a8 8 0 0 0-8 8V504a8 8 0 0 0 8 8h92.4a8 8 0 0 0 8-8v-92.4a8 8 0 0 0-8-8H62.2V347H248v56.6h-38.2a8 8 0 0 0-8 8V504a8 8 0 0 0 8 8h92.4a8 8 0 0 0 8-8v-92.4a8 8 0 0 0-8-8H264V347h185.8v56.6h-38.2a8 8 0 0 0-8 8V504a8 8 0 0 0 8 8H504a8 8 0 0 0 8-8v-92.4a8 8 0 0 0-8-8ZM232.649 268.636a8 8 0 0 0-5.712-5.759 112.95 112.95 0 0 1-28.337-11.793 8 8 0 0 0-8.131.021l-18.9 11.216-25.108-25.107 11.26-18.969a8 8 0 0 0 .032-8.113 112.937 112.937 0 0 1-11.717-28.37 8 8 0 0 0-5.765-5.733L119 170.6v-35.5l21.364-5.448a8 8 0 0 0 5.759-5.71A112.942 112.942 0 0 1 157.917 95.6a8 8 0 0 0-.022-8.131l-11.217-18.894 25.109-25.109 18.968 11.261a8 8 0 0 0 8.113.032 112.99 112.99 0 0 1 28.37-11.718 8 8 0 0 0 5.732-5.764L238.4 16h35.5l5.448 21.364a8 8 0 0 0 5.711 5.759A112.968 112.968 0 0 1 313.4 54.916a8 8 0 0 0 8.131-.021l18.9-11.217 25.109 25.107-11.267 18.969a8 8 0 0 0-.032 8.113 112.961 112.961 0 0 1 11.717 28.37 8 8 0 0 0 5.765 5.733L393 135.4v35.5l-21.364 5.449a8 8 0 0 0-5.759 5.711 112.972 112.972 0 0 1-11.793 28.34 8 8 0 0 0 .021 8.132l11.217 18.9-25.108 25.108-18.969-11.26a8 8 0 0 0-8.113-.032 112.959 112.959 0 0 1-28.37 11.718 8 8 0 0 0-5.732 5.764L273.6 290h-35.5ZM92.4 496H16v-76.4h76.4Zm201.8 0h-76.4v-76.4h76.4Zm201.8 0h-76.4v-76.4H496ZM345.389 153a88.952 88.952 0 0 0-19.509-55.675l11.305-14.271a8 8 0 0 0-11.239-11.239L311.675 83.12A89.354 89.354 0 1 0 345.389 153ZM256 226.39a73.39 73.39 0 1 1 42.719-133.008l-39.1 30.969a28.644 28.644 0 1 0 25.028 25.029l30.969-39.1A73.33 73.33 0 0 1 256 226.39Zm12.4-76.983a12.645 12.645 0 1 1-24.83 3.383 12.66 12.66 0 0 1 16.023-12.19 8 8 0 0 0 7.095-1.44l15.141-11.993-11.993 15.142a7.991 7.991 0 0 0-1.436 7.098ZM264 153v.01a8 8 0 1 1 0-.01Z" fill="#FFFFFF" opacity="1" data-original="#000000"></path></g></svg>