<?xml version="1.0" encoding="UTF-8"?>
<svg version="1.1" xmlns="http://www.w3.org/2000/svg" width="122" height="85">
<path d="M0 0 C0.33 0 0.66 0 1 0 C1.71386635 19.35370981 0.38022968 36.68576116 -13.1875 51.875 C-21.62467851 59.64708561 -32.30939992 62.74199375 -43.4375 63.4375 C-50.65839491 63.91553834 -56.80875077 64.75009259 -62 70 C-62.66 70 -63.32 70 -64 70 C-64.87546198 60.74306598 -58.13980704 51.72990418 -52.515625 44.79296875 C-45.4648443 37.154623 -37.33458483 33.15217318 -28 29 C-26.66204904 28.34264968 -25.32579017 27.68154431 -24 27 C-37.37781343 28.90039966 -48.02683791 33.62216067 -57 44 C-59.71039305 47.81594811 -61.94248865 51.80118724 -64 56 C-64.33 56 -64.66 56 -65 56 C-65.96014136 46.9675591 -64.05974987 40.52938969 -59 33 C-48.95602379 20.98070846 -38.87746494 16.59459186 -23.78125 13.296875 C-14.17073259 11.16670877 -6.66123501 7.30587066 0 0 Z " fill="#2EA38D" transform="translate(116,4)"/>
<path d="M0 0 C0.84691406 1.11568359 0.84691406 1.11568359 1.7109375 2.25390625 C7.2061516 8.84628768 14.40848639 13.35824048 21.75 17.6484375 C29.90430456 22.54668295 35.11548792 29.30618094 37.875 38.375 C40.16848905 48.13250668 38.90094857 57.27461135 37 67 C36.34 67 35.68 67 35 67 C34.51273438 65.65421875 34.51273438 65.65421875 34.015625 64.28125 C31.3256979 59.90229891 28.30425571 58.62531933 23.75 56.5 C15.80087409 52.71272012 9.36258216 48.52770725 4.25 41.1875 C3.69828125 40.41792969 3.1465625 39.64835937 2.578125 38.85546875 C-1.39831679 31.66047135 -2.4674972 25.02165263 -2.3125 16.875 C-2.31572266 16.02035156 -2.31894531 15.16570313 -2.32226562 14.28515625 C-2.27891387 9.15388502 -1.6528571 4.85979498 0 0 Z " fill="#2EA38D" transform="translate(8,15)"/>
</svg>
